<svg width="23" height="23" viewBox="0 0 23 23" fill="none" xmlns="http://www.w3.org/2000/svg">
<path d="M7.63245 12.3435C7.88871 18.018 10.3782 21.0688 11.4765 21.0688C12.5748 21.0688 15.0276 18.018 15.2717 12.3435H7.63245Z" fill="#4A3AFF"/>
<path d="M15.2229 10.5112C14.9666 4.78789 12.3673 1.78589 11.4765 1.78589C10.5856 1.78589 7.88871 4.8367 7.63245 10.5112H15.2229Z" fill="#4A3AFF"/>
<path d="M17.0539 10.5092H21.142C20.9647 8.65207 20.259 6.88468 19.1084 5.4162C17.9578 3.94773 16.4106 2.83965 14.6499 2.22314C16.1802 4.7194 17.0106 7.58148 17.0539 10.5092Z" fill="#4A3AFF"/>
<path d="M5.81441 10.5092C5.86877 7.57804 6.71187 4.71572 8.25506 2.22314C6.48522 2.83198 4.9277 3.93673 3.76802 5.4058C2.60835 6.87487 1.8954 8.64633 1.71411 10.5092H5.81441Z" fill="#4A3AFF"/>
<path d="M5.81441 12.3435H1.71411C1.89022 14.2042 2.59673 15.9752 3.74972 17.4462C4.9027 18.9172 6.4537 20.0263 8.21845 20.6417C6.68989 18.1402 5.85974 15.2747 5.81441 12.3435Z" fill="#4A3AFF"/>
<path d="M17.0538 12.3435C16.9974 15.2781 16.1546 18.1439 14.6132 20.6417C16.3756 20.0243 17.9241 18.9144 19.0748 17.4436C20.2255 15.9728 20.9302 14.2028 21.1053 12.3435H17.0538Z" fill="#4A3AFF"/>
</svg>
