<svg width="23" height="23" viewBox="0 0 23 23" fill="none" xmlns="http://www.w3.org/2000/svg">
<path d="M11.428 1.14258C15.5365 1.14258 17.5909 1.14304 19.0706 2.12207C19.7312 2.55923 20.2975 3.12451 20.7346 3.78516C21.7136 5.26478 21.7131 7.31925 21.7131 11.4277C21.7131 15.5362 21.7136 17.5907 20.7346 19.0703C20.2974 19.731 19.7313 20.2972 19.0706 20.7344C17.5909 21.7133 15.5364 21.7129 11.428 21.7129C7.3195 21.7129 5.26502 21.7134 3.7854 20.7344C3.12475 20.2972 2.55948 19.7309 2.12231 19.0703C1.14328 17.5907 1.14282 15.5363 1.14282 11.4277C1.14282 7.31925 1.14329 5.26478 2.12231 3.78516C2.55939 3.12471 3.12495 2.55914 3.7854 2.12207C5.26502 1.14305 7.3195 1.14258 11.428 1.14258ZM11.428 6.10352C8.48732 6.10352 6.10303 8.48713 6.10278 11.4277C6.10278 14.3685 8.48717 16.7529 11.428 16.7529C14.3687 16.7529 16.7522 14.3685 16.7522 11.4277C16.752 8.48717 14.3686 6.10357 11.428 6.10352ZM11.428 7.90527C13.3736 7.90533 14.9512 9.48212 14.9514 11.4277C14.9514 13.3736 13.3738 14.9511 11.428 14.9512C9.48213 14.9512 7.90454 13.3736 7.90454 11.4277C7.90478 9.48209 9.48228 7.90527 11.428 7.90527ZM16.9631 4.58496C16.2721 4.58496 15.7122 5.14493 15.7122 5.83594C15.7122 6.52688 16.2722 7.08691 16.9631 7.08691C17.654 7.08683 18.214 6.52683 18.2141 5.83594C18.2141 5.14499 17.6541 4.58505 16.9631 4.58496Z" fill="#4A3AFF"/>
</svg>
